<svg xmlns="http://www.w3.org/2000/svg" width="599.9" height="148.3" viewBox="0 0 599.9 148.3">
  <g id="algolia" transform="translate(-20.7 -246.8)">
    <path id="Path_29" data-name="Path 29" d="M40.2,246.8H149.5A19.461,19.461,0,0,1,169,266.3V375.6a19.461,19.461,0,0,1-19.5,19.5H40.2a19.461,19.461,0,0,1-19.5-19.5V266.3a19.525,19.525,0,0,1,19.5-19.5" fill="#5468ff"/>
    <path id="Path_30" data-name="Path 30" d="M110.3,279.9v-5.1a6.38,6.38,0,0,0-6.4-6.4h-15a6.38,6.38,0,0,0-6.4,6.4V280a.9.9,0,0,0,1.1.9,47.625,47.625,0,0,1,13.1-1.8,48.454,48.454,0,0,1,12.6,1.7.865.865,0,0,0,1-.9m-41.1,6.7L66.6,284a6.458,6.458,0,0,0-9.1,0h0l-3.1,3.1a6.458,6.458,0,0,0,0,9.1h0l2.5,2.5a.972.972,0,0,0,1.4-.1,53.707,53.707,0,0,1,4.9-5.8,38.591,38.591,0,0,1,5.8-4.9.867.867,0,0,0,.2-1.3m27.4,16.2v22a.921.921,0,0,0,1.3.8l19.6-10.1a.962.962,0,0,0,.4-1.2A24.437,24.437,0,0,0,97.6,302a.805.805,0,0,0-1,.8m0,53a29.5,29.5,0,1,1,29.6-29.5,29.576,29.576,0,0,1-29.6,29.5m0-71.5a41.9,41.9,0,1,0,42,41.9,41.974,41.974,0,0,0-42-41.9" fill="#fff"/>
    <path id="Path_31" data-name="Path 31" d="M316.4,364.5c-28.9.1-28.9-23.3-28.9-27V249.7l17.6-2.8v87.3c0,2.1,0,15.5,11.3,15.6v14.7ZM245,350.1a61.784,61.784,0,0,0,12.2-.9V331.3a31.481,31.481,0,0,0-4.2-.9,41.819,41.819,0,0,0-6.1-.5,30.021,30.021,0,0,0-5.9.5,17.921,17.921,0,0,0-5.4,1.6,9.208,9.208,0,0,0-3.8,3.2,6.038,6.038,0,0,0-1.4,4.3c0,4.1,1.4,6.5,4.1,8.1,2.4,1.7,6,2.5,10.5,2.5Zm-1.6-63.9a42.156,42.156,0,0,1,14.7,2.2,23.171,23.171,0,0,1,9.5,6,23.41,23.41,0,0,1,5,9.8,46.326,46.326,0,0,1,1.5,12.2v45.3q-4.05.9-12.3,2.1a129.66,129.66,0,0,1-18.5,1.2,60.727,60.727,0,0,1-12.5-1.3,25.976,25.976,0,0,1-9.7-4.2,20.11,20.11,0,0,1-6.3-7.5,28.368,28.368,0,0,1-2.3-11.9,18.986,18.986,0,0,1,2.5-10,20.968,20.968,0,0,1,6.9-7.3,29.278,29.278,0,0,1,10.1-4,58.137,58.137,0,0,1,12-1.2,43.538,43.538,0,0,1,6.1.4,50.162,50.162,0,0,1,6.9,1.2v-2.9a21.954,21.954,0,0,0-.7-5.8,12.27,12.27,0,0,0-2.5-4.8,10.989,10.989,0,0,0-4.8-3.2,20.055,20.055,0,0,0-7.5-1.4,61.33,61.33,0,0,0-11.1,1.1,59.835,59.835,0,0,0-8.3,2L220,289.8a70.343,70.343,0,0,1,9.7-2.3,67.065,67.065,0,0,1,13.7-1.3Zm348,63.4a61.783,61.783,0,0,0,12.2-.9V330.8a36.039,36.039,0,0,0-4.2-.9,41.819,41.819,0,0,0-6.1-.5,30.021,30.021,0,0,0-5.9.5,17.922,17.922,0,0,0-5.4,1.6,9.208,9.208,0,0,0-3.8,3.2,6.038,6.038,0,0,0-1.4,4.3c0,4.1,1.4,6.5,4.1,8.1,2.6,1.8,6.1,2.5,10.5,2.5Zm-1.5-63.8a42.156,42.156,0,0,1,14.7,2.2,23.171,23.171,0,0,1,9.5,6,24.63,24.63,0,0,1,5,9.8,46.326,46.326,0,0,1,1.5,12.2v45.3q-4.05.9-12.3,2.1a129.66,129.66,0,0,1-18.5,1.2,60.727,60.727,0,0,1-12.5-1.3,25.977,25.977,0,0,1-9.7-4.2,20.11,20.11,0,0,1-6.3-7.5,28.368,28.368,0,0,1-2.3-11.9,18.987,18.987,0,0,1,2.5-10,20.968,20.968,0,0,1,6.9-7.3,29.278,29.278,0,0,1,10.1-4,58.137,58.137,0,0,1,12-1.2,43.537,43.537,0,0,1,6.1.4,44.282,44.282,0,0,1,6.8,1.2v-2.9a21.954,21.954,0,0,0-.7-5.8,12.27,12.27,0,0,0-2.5-4.8,10.989,10.989,0,0,0-4.8-3.2,20.18,20.18,0,0,0-7.5-1.3,61.33,61.33,0,0,0-11.1,1.1,59.833,59.833,0,0,0-8.3,2l-2.1-14.4a70.343,70.343,0,0,1,9.7-2.3,62.122,62.122,0,0,1,13.8-1.4ZM537,277.4a10.7,10.7,0,1,0-10.7-10.7A10.712,10.712,0,0,0,537,277.4Zm8.9,87.1H528.2v-76l17.7-2.8v78.8Zm-31,0c-28.9.1-28.9-23.3-28.9-27V249.7l17.6-2.8v87.3c0,2.1,0,15.5,11.3,15.6Zm-57.3-38.9c0-7.6-1.7-14-4.9-18.4-3.2-4.5-7.8-6.7-13.6-6.7s-10.4,2.2-13.6,6.7-4.8,10.7-4.8,18.4,1.6,12.9,4.9,17.3c3.2,4.5,7.8,6.7,13.6,6.7s10.4-2.2,13.6-6.7S457.6,333.3,457.6,325.6Zm18,0a43.845,43.845,0,0,1-2.6,15.3,37.479,37.479,0,0,1-7.4,12.6,32.452,32.452,0,0,1-11.5,8.1,46.35,46.35,0,0,1-14.9,3,42.836,42.836,0,0,1-14.8-3,32.452,32.452,0,0,1-11.5-8.1,37.683,37.683,0,0,1-7.5-12.6,41.66,41.66,0,0,1-2.7-15.3,48.015,48.015,0,0,1,2.6-16.5,35.869,35.869,0,0,1,7.6-12.5,33.1,33.1,0,0,1,11.5-8,39.988,39.988,0,0,1,29.4,0,31.351,31.351,0,0,1,11.5,8,37.215,37.215,0,0,1,7.5,12.5,45.339,45.339,0,0,1,2.8,16.5Zm-132.6,0c0,7.4,1.6,15.6,4.9,19a16.5,16.5,0,0,0,12.6,5.1,25.152,25.152,0,0,0,7.9-1.2,24.239,24.239,0,0,0,6-2.7V302.1a62.824,62.824,0,0,0-11.6-1.5,17.464,17.464,0,0,0-14.7,6.6c-3.4,4.2-5.1,11.5-5.1,18.4Zm49,34.7c0,12-3.1,20.8-9.2,26.4-6.2,5.6-15.6,8.4-28.3,8.4a122.248,122.248,0,0,1-22-2.6l2.8-14a112.3,112.3,0,0,0,19.4,1.7c7.1,0,12.1-1.4,15.1-4.3s4.5-7.2,4.5-12.8v-2.9a51,51,0,0,1-6.9,2.6,32.317,32.317,0,0,1-9.8,1.3,37.484,37.484,0,0,1-13.3-2.3,27.869,27.869,0,0,1-10.3-6.7,31.837,31.837,0,0,1-6.7-11.2c-1.6-4.5-2.4-12.4-2.4-18.3a57.7,57.7,0,0,1,2.5-17,31.982,31.982,0,0,1,7.4-11.8,34,34,0,0,1,11.9-7.7,44.269,44.269,0,0,1,16-3,91.5,91.5,0,0,1,16.1,1.6c5.1.9,9.5,1.7,13.1,2.7l.1,69.9Z" fill="#5468ff"/>
  </g>
</svg>
