<svg xmlns="http://www.w3.org/2000/svg" width="265.9" height="365.078" viewBox="0 0 265.9 365.078">
  <g id="firebase" transform="translate(-117 -67.447)">
    <path id="XMLID_2_" d="M117.1,362.1l2.2-3.1L223.8,160.7l.2-2.1L177.9,72a8.548,8.548,0,0,0-16,2.7Z" fill="#ffc24a"/>
    <path id="XMLID_3_" d="M257.6,224.1,291.9,189l-34.3-65.5a8.867,8.867,0,0,0-15.6,0l-18.3,35v3Z" fill="#f4bd62"/>
    <path id="XMLID_4_" d="M117.1,362.1l1-1,3.6-1.5L255.5,226.4l1.6-4.6-33.3-63.6Z" fill="#f6820c"/>
    <path id="XMLID_5_" d="M261.9,429.3l121-67.5L348.3,148.9a8.241,8.241,0,0,0-14-4.5L117.1,362.1l120.4,67.2a24.688,24.688,0,0,0,24.4,0" fill="#fde068"/>
    <path id="XMLID_6_" d="M381.9,361.2,347.6,150c-1.1-6.6-7.9-9.3-12.6-4.6L118.4,361.7l119,66.5a25.007,25.007,0,0,0,24.3,0Z" fill="#fcca3f"/>
    <path id="XMLID_7_" d="M261.9,427.3a25.394,25.394,0,0,1-24.5,0L118,361.1l-1,1,120.4,67.2a25.394,25.394,0,0,0,24.5,0l121-67.5-.3-1.8Z" fill="#eeab37"/>
  </g>
</svg>
