<svg xmlns="http://www.w3.org/2000/svg" width="480.736" height="695.68" viewBox="0 0 480.736 695.68"><defs><linearGradient id="a" x1="0.17" y1="1.143" x2="0.669" y2="0.458" gradientUnits="objectBoundingBox"><stop offset="0" stop-color="#1a237e" stop-opacity="0.4"/><stop offset="1" stop-color="#1a237e" stop-opacity="0"/></linearGradient></defs><g transform="translate(-216.452)"><path d="M567.427,165.283h-3.821V60.594A60.594,60.594,0,0,0,503.012,0H281.206a60.592,60.592,0,0,0-60.593,60.593V634.936a60.594,60.594,0,0,0,60.594,60.594H503.013a60.594,60.594,0,0,0,60.593-60.594V239.8h3.821Z" transform="translate(-4.161)" fill="#3f3d56"/><path d="M505.457,15.758H476.506A21.5,21.5,0,0,1,456.6,45.375H329.529a21.5,21.5,0,0,1-19.9-29.617H282.582A45.25,45.25,0,0,0,237.331,61.01V634.518a45.251,45.251,0,0,0,45.251,45.251H505.456a45.251,45.251,0,0,0,45.251-45.251h0V61.008a45.251,45.251,0,0,0-45.251-45.25Z" transform="translate(-4.25)" fill="#fff"/><path d="M639.613,684.3H627.354l-5.833-47.288h18.095Z" transform="translate(-8.212)" fill="#ffb8b8"/><path d="M618.6,680.793h23.644V695.68H603.71A14.887,14.887,0,0,1,618.6,680.793Z" transform="translate(-8.184)" fill="#2f2e41"/><path d="M685.613,684.3H673.354l-5.833-47.288h18.095Z" transform="translate(-10.481)" fill="#ffb8b8"/><path d="M664.6,680.793h23.644V695.68H649.71A14.887,14.887,0,0,1,664.6,680.793Z" transform="translate(-10.481)" fill="#2f2e41"/><path d="M684.116,543.458a10.743,10.743,0,0,1-2.063-16.343l-8.072-114.558,23.253,2.255L697.873,527a10.8,10.8,0,0,1-13.757,16.459Z" transform="translate(-10.481)" fill="#ffb8b8"/><path d="M639.034,660.474l-13.5-.644a4.5,4.5,0,0,1-4.286-4.463L620.31,518.81a4.5,4.5,0,0,1,5.146-4.485l53.994,7.838a4.475,4.475,0,0,1,3.854,4.42l6.944,126.534a4.5,4.5,0,0,1-4.5,4.534H671.2a4.48,4.48,0,0,1-4.445-3.8l-8.977-57.067a3.5,3.5,0,0,0-6.933.128l-7.126,59.6a4.52,4.52,0,0,1-4.469,3.966q-.106,0-.214-.006Z" transform="translate(-10.481)" fill="#2f2e41"/><g transform="translate(608.348 387.758)"><path d="M648.535,526.589c-11.9-6.611-21.2-8.349-25.68-8.8a4.42,4.42,0,0,1-3.053-1.673,4.48,4.48,0,0,1-.931-3.4l12.938-96.051a33.22,33.22,0,0,1,19.364-25.957,32.307,32.307,0,0,1,31.4,2.461q.665.442,1.3.9a33.18,33.18,0,0,1,12.636,34.573c-7.934,32.455-10.659,85.662-11.125,96a4.465,4.465,0,0,1-2.918,4.005,45.082,45.082,0,0,1-15.226,2.711,38.13,38.13,0,0,1-18.705-4.774Z" transform="translate(-618.829 -387.758)" fill="#1f4988"/><path d="M679.245,451.05a4.48,4.48,0,0,1-1.859-3.4l-1.7-30.876a12.4,12.4,0,0,1,24.346-3.927l7.485,27.605a4.506,4.506,0,0,1-3.166,5.521l-21.291,5.773a4.48,4.48,0,0,1-3.812-.7Z" transform="translate(-618.829 -387.758)" fill="#1f4988"/></g><g transform="translate(538.648 328.547)"><circle cx="24.561" cy="24.561" r="24.561" transform="translate(85.667)" fill="#ffb8b8"/><path d="M613.152,449.782a12.39,12.39,0,0,1-7.679-2.647l-41.788-32.967a10.424,10.424,0,0,1-1.036.306,11.02,11.02,0,0,1-8.818-1.691,11,11,0,1,1,17.009-11.534h0a10.619,10.619,0,0,1,.229,1.452l42.481,24.507,10.572-6.086,11.711,15.332L620.338,447.5a12.373,12.373,0,0,1-7.187,2.285Z" transform="translate(-549.129 -328.547)" fill="#ffb8b8"/></g><path d="M615.084,425.678a4.48,4.48,0,0,1,1.293-3.653l21.863-21.868a12.4,12.4,0,0,1,19.168,15.516l-15.57,23.992a4.5,4.5,0,0,1-6.224,1.325l-18.5-12.009a4.482,4.482,0,0,1-2.026-3.3Z" transform="translate(-8.432)" fill="#1f4988"/><path d="M666.258,376.08a3.973,3.973,0,0,0,5.69.327,44.422,44.422,0,0,0,12.672-16.549c3.193-7.611,3.661-16.9.027-24.033-3.072-6.031-8.587-9.87-14.092-13.007a22.98,22.98,0,0,0-6.848-2.894,8.993,8.993,0,0,0-7.154,1.407,7.545,7.545,0,0,0-2.878,7.227,22.363,22.363,0,0,0-9.8-7.357,11.363,11.363,0,0,0-7.554-.506c-3.536,1.18-6.153,4.75-7.609,8.586a19.14,19.14,0,0,0-1.255,9.264,11.13,11.13,0,0,0,4.269,7.671c2.884,1.99,6.6,1.788,9.953.907s6.609-2.374,10.021-2.79,7.194.486,9.227,3.53c1.432,2.143,1.769,4.967,2.061,7.658l1.519,14a18.554,18.554,0,0,0,1.278,5.84,3.251,3.251,0,0,0,.473.72Z" transform="translate(-10.481)" fill="#2f2e41"/><path d="M277.314,472.682H311.2v6.631H284.19v20.054h24.391v6.547H284.19v25.37h-6.876Zm42.067,0h6.953v58.6h-6.953Zm20.911,55.484q-3.973-4.417-3.97-12.36V489.54h6.953v25.209q0,5.974,2.7,8.758a9.67,9.67,0,0,0,7.282,2.784,10.76,10.76,0,0,0,6.257-1.882,12.75,12.75,0,0,0,4.253-4.91,14.05,14.05,0,0,0,1.514-6.386V489.54h6.96v41.738H365.61v-6.057h-.329a13.779,13.779,0,0,1-5.484,5.239,16.059,16.059,0,0,1-8.023,2.127q-7.51,0-11.483-4.421Zm54.014,3.589a10.691,10.691,0,0,1-3.641-2.249,10.24,10.24,0,0,1-2.455-3.667,13.885,13.885,0,0,1-.818-5.084V495.842H380.11v-6.3h7.282V477.754h6.953V489.54h10.149v6.3H394.345V519.1a8.4,8.4,0,0,0,1.308,5.187,5.56,5.56,0,0,0,4.5,1.843,8.46,8.46,0,0,0,4.582-1.392v6.792a10.661,10.661,0,0,1-2.494.818,17.793,17.793,0,0,1-3.235.245,13.15,13.15,0,0,1-4.7-.838Zm29.54,0a10.691,10.691,0,0,1-3.641-2.249,10.24,10.24,0,0,1-2.455-3.667,13.885,13.885,0,0,1-.818-5.084V495.842H409.65v-6.3h7.282V477.754h6.953V489.54h10.149v6.3H423.885V519.1a8.4,8.4,0,0,0,1.308,5.187,5.56,5.56,0,0,0,4.5,1.843,8.46,8.46,0,0,0,4.582-1.392v6.792a10.662,10.662,0,0,1-2.494.818,17.792,17.792,0,0,1-3.235.245,13.2,13.2,0,0,1-4.7-.838Zm24.681-2.036a19.869,19.869,0,0,1-7.4-7.894,23.9,23.9,0,0,1-2.661-11.335,24.9,24.9,0,0,1,2.494-11.129,20.123,20.123,0,0,1,7.082-8.1,18.86,18.86,0,0,1,10.639-3.029,20.09,20.09,0,0,1,10.639,2.739,18.19,18.19,0,0,1,6.915,7.572,24.38,24.38,0,0,1,2.417,11.052,8.249,8.249,0,0,1-.245,2.127H445.422a16.484,16.484,0,0,0,2.294,8.023,13.329,13.329,0,0,0,5.194,4.91,14.06,14.06,0,0,0,6.586,1.637q8.023,0,12.36-7.527l5.89,2.868a20.979,20.979,0,0,1-7.327,8.023,22.02,22.02,0,0,1-21.891.064Zm22.748-23.734a13.49,13.49,0,0,0-1.476-5.239,11.25,11.25,0,0,0-4.131-4.421,12.94,12.94,0,0,0-7.082-1.8,11.76,11.76,0,0,0-8.306,3.151,15.17,15.17,0,0,0-4.459,8.306ZM486.74,489.54h6.631v6.708h.329a11.35,11.35,0,0,1,4.749-5.729,13.3,13.3,0,0,1,7.366-2.294,12.17,12.17,0,0,1,4.91.9v7.449a13.025,13.025,0,0,0-5.89-1.308,9.73,9.73,0,0,0-5.568,1.721,12.44,12.44,0,0,0-4.053,4.633A13.364,13.364,0,0,0,493.7,507.9v23.379h-6.953V489.54Z" transform="translate(-4.414)" fill="#3f3d56"/><path d="M415.712,337.858l91.053,91.482-86-1-32-32Z" transform="translate(-5.512)" fill="#01579b"/><path d="M452.618,374.938l-63.853,21.4,39.067-46.507,24.786,25.105Z" transform="translate(-5.056)" fill="url(#a)"/><path d="M506.155,149.89,324.125,331.94l-42.85-42.84,139.22-139.21ZM345.265,353.84l75-75h86l-118,117Z" transform="translate(-4.422 1)" fill="#54c5f8"/><path d="M388.361,310.52l42.849,42.829L388.765,396.34l-43-42Z" transform="translate(-4.515)" fill="#29b6f6"/></g></svg>