<svg id="next-js-seeklogo.com" xmlns="http://www.w3.org/2000/svg" width="334" height="201.499" viewBox="0 0 334 201.499">
  <path id="Path_19" data-name="Path 19" d="M78.81,52.554h63v5.007H84.584V95.245h53.809v5.007H84.584v41.374h57.877v5.007H78.81Zm68.639,0h6.694L183.8,93.927l30.316-41.373L255.354,0,187.608,98.275l34.91,48.357h-6.956L183.8,102.623l-31.892,44.008h-6.824l35.172-48.357Zm77.563,5.007V52.554H296.8v5.007H263.728v89.071h-5.775V57.561ZM0,52.554H7.218L106.753,201.5,65.621,146.632,6.037,59.669l-.262,86.963H0Zm296.219,87.56a2.1,2.1,0,1,1,2.065-2.1A2.04,2.04,0,0,1,296.219,140.114Zm5.674-5.512h3.09a2.822,2.822,0,0,0,3.061,2.8c2.009,0,3.146-1.209,3.146-3.474V119.581h3.146V133.94c0,4.078-2.36,6.428-6.264,6.428C304.407,140.367,301.893,138.089,301.893,134.6Zm16.559-.183h3.118c.267,1.927,2.149,3.15,4.859,3.15,2.528,0,4.382-1.308,4.382-3.108,0-1.547-1.18-2.475-3.863-3.108l-2.613-.633c-3.666-.858-5.337-2.63-5.337-5.611,0-3.615,2.949-6.019,7.373-6.019,4.115,0,7.121,2.4,7.3,5.822h-3.062c-.295-1.87-1.924-3.038-4.283-3.038-2.486,0-4.144,1.2-4.144,3.024,0,1.449,1.067,2.279,3.708,2.9l2.233.549c4.157.971,5.871,2.658,5.871,5.71,0,3.881-3.005,6.315-7.809,6.315C321.7,140.367,318.677,138.046,318.452,134.418Z" fill="#fff"/>
</svg>
