<svg xmlns="http://www.w3.org/2000/svg" xmlns:xlink="http://www.w3.org/1999/xlink" width="185.511" height="165.052" viewBox="0 0 185.511 165.052">
  <defs>
    <linearGradient id="linear-gradient" x1="0.092" y1="0.673" x2="1.2" y2="0.686" gradientUnits="objectBoundingBox">
      <stop offset="0" stop-color="#1f203a"/>
      <stop offset="1"/>
    </linearGradient>
  </defs>
  <g id="react-seeklogo.com" transform="translate(-15.243 -14.514)">
    <path id="Path_21" data-name="Path 21" d="M167.771,68.011q-2.887-.994-5.972-1.882.506-2.066.923-4.073c4.52-21.943,1.565-39.621-8.529-45.441-9.677-5.581-25.5.238-41.489,14.149Q110.4,32.77,108.085,35q-1.541-1.473-3.074-2.839C88.258,17.289,71.466,11.02,61.384,16.857c-9.668,5.6-12.532,22.216-8.463,43.012q.59,3.013,1.372,6.145c-2.377.675-4.671,1.394-6.866,2.159-19.64,6.848-32.184,17.579-32.184,28.711,0,11.5,13.465,23.028,33.922,30.021q2.422.828,5.016,1.569-.84,3.383-1.457,6.622c-3.88,20.435-.85,36.66,8.793,42.223,9.96,5.743,26.676-.16,42.953-14.388q1.93-1.687,3.871-3.568,2.515,2.422,5.015,4.575c15.767,13.567,31.338,19.046,40.972,13.469,9.95-5.76,13.184-23.191,8.985-44.4q-.48-2.43-1.112-4.958,1.761-.521,3.45-1.078c21.267-7.046,35.1-18.437,35.1-30.088,0-11.171-12.947-21.976-32.983-28.873Z" fill="#fff"/>
    <path id="Path_22" data-name="Path 22" d="M164.885,121.174c-1.014.336-2.055.66-3.116.975a185.881,185.881,0,0,0-9.394-23.5A185.952,185.952,0,0,0,161.4,75.488c1.9.549,3.74,1.128,5.515,1.74,17.166,5.91,27.638,14.647,27.638,21.38,0,7.171-11.309,16.482-29.672,22.566Zm-7.619,15.1c1.856,9.378,2.121,17.856.892,24.484-1.105,5.956-3.327,9.926-6.074,11.516-5.846,3.384-18.349-1.015-31.832-12.617q-2.319-2-4.665-4.254a186.158,186.158,0,0,0,15.551-19.744,185.007,185.007,0,0,0,25.124-3.873q.568,2.289,1,4.488ZM80.216,171.687c-5.712,2.017-10.261,2.075-13.011.489-5.852-3.375-8.284-16.4-4.966-33.879q.57-3,1.354-6.159a186.39,186.39,0,0,0,25,3.619,192.96,192.96,0,0,0,15.925,19.675q-1.775,1.713-3.534,3.254c-7.2,6.292-14.41,10.755-20.767,13Zm-26.76-50.557c-9.046-3.092-16.516-7.11-21.637-11.495-4.6-3.94-6.924-7.852-6.924-11.027,0-6.754,10.071-15.371,26.868-21.227,2.038-.711,4.172-1.38,6.386-2.009A189.96,189.96,0,0,0,67.19,98.8a193.116,193.116,0,0,0-9.155,23.762q-2.368-.68-4.579-1.433Zm8.97-61.059C58.94,42.253,61.255,28.813,67.082,25.44c6.206-3.593,19.93,1.53,34.394,14.373q1.387,1.231,2.784,2.569a189.9,189.9,0,0,0-15.8,19.557A193.69,193.69,0,0,0,63.7,65.786q-.724-2.913-1.275-5.715ZM142.447,79.83q-2.754-4.756-5.641-9.278c5.919.748,11.59,1.742,16.915,2.957a169.011,169.011,0,0,1-5.937,15.974q-2.523-4.792-5.337-9.654ZM109.815,48.046a169.561,169.561,0,0,1,10.917,13.179q-5.443-.257-11.006-.261-5.5,0-10.92.256c3.6-4.753,7.3-9.168,11.009-13.174ZM76.973,79.885q-2.75,4.769-5.237,9.593C69.429,84,67.454,78.623,65.842,73.426c5.293-1.184,10.937-2.153,16.818-2.887q-2.922,4.558-5.687,9.345Zm5.856,47.358a168.715,168.715,0,0,1-17.1-2.749c1.638-5.289,3.656-10.786,6.013-16.377q2.491,4.811,5.259,9.6h0q2.819,4.869,5.824,9.527Zm27.2,22.486c-3.756-4.053-7.5-8.536-11.162-13.358q5.328.209,10.854.21,5.672,0,11.2-.249a168.673,168.673,0,0,1-10.891,13.4Zm37.825-41.9a168.094,168.094,0,0,1,6.23,16.319,168.188,168.188,0,0,1-17.305,2.95q2.889-4.578,5.7-9.44,2.834-4.915,5.38-9.829Zm-12.245,5.87c-2.9,5.028-5.877,9.828-8.9,14.359-5.506.394-11.193.6-16.989.6-5.772,0-11.388-.18-16.8-.53-3.144-4.59-6.185-9.4-9.067-14.382h0c-2.874-4.964-5.519-9.969-7.915-14.947,2.4-4.989,5.034-10,7.891-14.955h0c2.865-4.968,5.88-9.759,9-14.32,5.517-.417,11.175-.635,16.892-.635h0c5.744,0,11.408.219,16.923.64,3.068,4.528,6.062,9.3,8.938,14.272,2.909,5.024,5.581,10,8,14.884-2.409,4.966-5.075,9.994-7.971,15.016Zm16.349-88.5c6.212,3.582,8.628,18.03,4.725,36.976-.249,1.209-.53,2.44-.834,3.688a189.809,189.809,0,0,0-24.8-3.918,186.1,186.1,0,0,0-15.682-19.571q2.139-2.057,4.267-3.913c13.7-11.919,26.5-16.625,32.329-13.261Z" transform="translate(-1.728 -1.724)" fill="url(#linear-gradient)"/>
    <path id="Path_23" data-name="Path 23" d="M124.609,94.665a16.566,16.566,0,1,1-16.565,16.565,16.565,16.565,0,0,1,16.565-16.565" transform="translate(-16.611 -14.347)" fill="#fff"/>
  </g>
</svg>
