<svg xmlns="http://www.w3.org/2000/svg" width="512.01" height="448" viewBox="0 0 512.01 448">
  <path id="swift" d="M315.584,32.005c225.088,150.208,152.1,315.264,152.1,315.264s63.936,70.752,38.24,132.736c0,0-26.528-43.3-70.56-43.3-42.56,0-67.744,43.3-153.664,43.3C90.592,480.005,0,323.4,0,323.4c172.224,111.36,289.888,32.448,289.888,32.448C212.128,311.749,47.2,100.581,47.2,100.581,190.976,220.613,253.024,252.133,253.024,252.133,215.712,222.181,111.744,75.4,111.744,75.4,194.944,157.925,360.32,273,360.32,273,407.744,145.829,315.584,32.005,315.584,32.005Z" transform="translate(0 -32.005)" fill="#ff5722"/>
</svg>
