<svg height="512px" viewBox="0 0 512.002 512" width="512px" xmlns="http://www.w3.org/2000/svg"><path d="m116.351562 265.992188c5.359376-.179688 9.648438-4.589844 9.648438-9.992188 0-5.398438-4.28125-9.800781-9.640625-9.988281-.121094-.011719-.238281-.011719-.359375-.011719-5.519531 0-10 4.480469-10 10s4.480469 10 10 10c.121094 0 .238281 0 .351562-.007812zm0 0"/><path d="m256 106c-68.777344 0-125.808594 46.019531-143.914062 107.578125-1.558594 5.300781 1.472656 10.859375 6.773437 12.417969 5.296875 1.554687 10.855469-1.472656 12.414063-6.773438 16.144531-54.886718 67.433593-93.222656 124.726562-93.222656 71.683594 0 130 58.320312 130 130 0 53.972656-33.066406 100.363281-80 119.996094v-75.851563l37.070312-37.074219c1.875-1.875 2.929688-4.417968 2.929688-7.070312v-20c0-5.523438-4.476562-10-10-10s-10 4.476562-10 10v15.859375l-37.070312 37.070313c-1.875 1.875-2.929688 4.417968-2.929688 7.070312v86.5c-6.492188 1.539062-13.171875 2.597656-20 3.121094v-140.886719c17.234375-4.453125 30-20.128906 30-38.734375 0-22.054688-17.945312-40-40-40s-40 17.945312-40 40c0 18.605469 12.765625 34.28125 30 38.734375v140.878906c-6.816406-.511719-13.496094-1.550781-20-3.066406v-86.546875c0-2.652344-1.054688-5.195312-2.929688-7.070312l-37.070312-37.070313v-15.859375c0-5.523438-4.476562-10-10-10s-10 4.476562-10 10v20c0 2.652344 1.054688 5.195312 2.929688 7.070312l37.070312 37.074219v75.996094c-35.410156-14.621094-63.214844-44.558594-74.734375-83.382813-1.570313-5.296874-7.136719-8.3125-12.429687-6.742187-5.296876 1.570313-8.3125 7.136719-6.742188 12.429687 19.707031 66.417969 79.949219 107.554688 143.90625 107.554688 82.539062 0 150-67.148438 150-150 0-82.710938-67.289062-150-150-150zm-20 100c0-11.027344 8.972656-20 20-20s20 8.972656 20 20-8.972656 20-20 20-20-8.972656-20-20zm0 0"/><path d="m504.144531 216.234375-43.074219-9.457031c-5.085937-21.597656-13.523437-42.066406-25.160156-61.007813l25.378906-38.785156c2.59375-3.960937 2.050782-9.199219-1.296874-12.546875l-42.429688-42.429688c-3.347656-3.347656-8.585938-3.886718-12.546875-1.292968l-38.785156 25.375c-18.941407-11.636719-39.410157-20.074219-61.003907-25.15625l-9.457031-43.078125c-1.007812-4.585938-5.074219-7.855469-9.769531-7.855469h-60c-4.695312 0-8.761719 3.269531-9.769531 7.855469l-9.457031 43.078125c-21.59375 5.082031-42.0625 13.519531-61.003907 25.15625l-38.785156-25.375c-3.960937-2.59375-9.199219-2.050782-12.546875 1.292968l-42.429688 42.429688c-3.347656 3.347656-3.890624 8.585938-1.296874 12.546875l25.378906 38.785156c-11.632813 18.9375-20.078125 39.40625-25.167969 61.007813l-43.066406 9.457031c-4.585938 1.007813-7.855469 5.070313-7.855469 9.765625v60c0 4.695312 3.265625 8.757812 7.851562 9.769531l43.511719 9.566407c5.199219 21.425781 13.636719 41.621093 25.144531 60.203124l-25.796874 39.480469c-2.589844 3.960938-2.046876 9.195313 1.296874 12.542969l42.429688 42.429688c3.347656 3.34375 8.578125 3.890624 12.539062 1.304687l40.015626-26.125c18.539062 11.214844 38.464843 19.390625 59.40625 24.363281l9.835937 44.617188c1.011719 4.585937 5.074219 7.847656 9.765625 7.847656h60c4.695312 0 8.757812-3.261719 9.765625-7.847656l9.835937-44.617188c20.945313-4.972656 40.871094-13.148437 59.40625-24.363281l40.015626 26.125c3.960937 2.582031 9.195312 2.042969 12.539062-1.304687l42.429688-42.429688c3.347656-3.34375 3.890624-8.578125 1.300781-12.542969l-25.800781-39.480469c11.511718-18.59375 19.949218-38.796874 25.148437-60.203124l43.507813-9.566407c4.585937-1.007812 7.855468-5.074219 7.855468-9.769531v-60c-.003906-4.695312-3.273437-8.757812-7.859375-9.765625zm-12.144531 61.726563-41.855469 9.203124c-3.839843.84375-6.828125 3.859376-7.640625 7.703126-4.945312 23.46875-14.113281 45.402343-27.253906 65.191406-2.210938 3.332031-2.226562 7.65625-.039062 11.003906l24.894531 38.101562-30.945313 30.945313-38.574218-25.179687c-3.3125-2.164063-7.585938-2.167969-10.902344-.019532-19.832032 12.851563-41.523438 21.746094-64.480469 26.445313-3.867187.789062-6.90625 3.785156-7.757813 7.640625l-9.480468 43.003906h-43.929688l-9.480468-43.003906c-.851563-3.855469-3.890626-6.851563-7.757813-7.640625-22.953125-4.699219-44.648437-13.59375-64.476563-26.445313-3.320312-2.152344-7.59375-2.144531-10.90625.019532l-38.570312 25.179687-30.949219-30.945313 24.898438-38.101562c2.1875-3.347656 2.167969-7.675781-.042969-11.003906-13.132812-19.769532-22.304688-41.699219-27.253906-65.191406-.8125-3.84375-3.800782-6.859376-7.636719-7.703126l-41.859375-9.203124v-43.917969l41.464844-9.105469c3.867187-.847656 6.867187-3.898438 7.65625-7.777344 4.789062-23.609375 13.949218-45.808594 27.222656-65.96875 2.1875-3.332031 2.195312-7.640625.015625-10.976562l-24.460937-37.378906 30.9375-30.9375 37.378906 24.460937c3.335937 2.179687 7.644531 2.175781 10.972656-.015625 20.171875-13.273438 42.367188-22.429688 65.96875-27.210938 3.878906-.785156 6.933594-3.789062 7.78125-7.65625l9.105469-41.476562h43.914062l9.105469 41.476562c.847656 3.867188 3.902344 6.871094 7.78125 7.65625 23.601562 4.78125 45.796875 13.9375 65.96875 27.210938 3.328125 2.191406 7.636719 2.195312 10.972656.015625l37.378906-24.460937 30.9375 30.9375-24.460937 37.378906c-2.179687 3.335937-2.175781 7.644531.015625 10.972656 13.277344 20.171875 22.433594 42.367188 27.214844 65.96875.785156 3.882812 3.785156 6.933594 7.65625 7.78125l41.472656 9.105469zm0 0"/></svg>